<?xml version="1.0" standalone="no"?>
<!DOCTYPE svg PUBLIC "-//W3C//DTD SVG 20010904//EN"
 "http://www.w3.org/TR/2001/REC-SVG-20010904/DTD/svg10.dtd">
<svg version="1.0" xmlns="http://www.w3.org/2000/svg"
 width="512.000000pt" height="512.000000pt" viewBox="0 0 512.000000 512.000000"
 preserveAspectRatio="xMidYMid meet">

<rect width="100%" height="100%" fill="white"/>
<g transform="translate(0.000000,512.000000) scale(0.100000,-0.100000)"
fill="#000000" stroke="none">
<path d="M0 2560 l0 -2560 2560 0 2560 0 0 2560 0 2560 -2560 0 -2560 0 0
-2560z m1634 1400 c362 -62 637 -248 785 -529 46 -88 88 -211 105 -304 l7 -37
-326 2 -326 3 -24 59 c-51 126 -158 224 -290 268 -93 30 -291 33 -372 5 -114
-40 -174 -113 -174 -212 0 -61 15 -97 63 -142 64 -61 174 -102 493 -180 427
-105 560 -152 704 -248 94 -62 199 -175 239 -257 55 -113 74 -204 75 -358 0
-107 -5 -151 -22 -214 -103 -384 -435 -607 -940 -632 -306 -16 -630 57 -859
194 -249 149 -416 412 -447 707 l-7 65 324 0 325 0 28 -75 c88 -242 274 -365
548 -365 158 1 281 42 351 120 50 56 66 97 66 170 0 75 -23 124 -81 174 -77
65 -173 97 -625 205 -371 89 -565 178 -697 320 -110 120 -157 243 -165 432 -8
211 43 379 159 525 123 155 344 269 595 308 137 21 351 20 488 -4z m3126 -315
l0 -285 -600 0 -600 0 0 -250 0 -250 540 0 540 0 0 -280 0 -280 -540 0 -540 0
0 -250 0 -250 600 0 600 0 0 -280 0 -280 -915 0 -915 0 0 1345 0 1345 915 0
915 0 0 -285z"/>
</g>
</svg>
